<svg width="20" height="21" viewBox="0 0 20 21" fill="none" xmlns="http://www.w3.org/2000/svg">
<path fill-rule="evenodd" clip-rule="evenodd" d="M14.6026 6.41318V7.69096C16.0379 8.13897 17.0837 9.43828 17.0837 10.9902V15.1043C17.0837 17.0255 15.4909 18.5832 13.5272 18.5832H6.47432C4.50979 18.5832 2.91699 17.0255 2.91699 15.1043V10.9902C2.91699 9.43828 3.96362 8.13897 5.39806 7.69096V6.41318C5.40653 3.92883 7.46421 1.9165 9.98762 1.9165C12.5449 1.9165 14.6026 3.92883 14.6026 6.41318ZM10.0046 3.36571C11.7235 3.36571 13.1207 4.7321 13.1207 6.41318V7.51126H6.87993V6.39661C6.8884 4.72382 8.28559 3.36571 10.0046 3.36571ZM10.7413 13.9623C10.7413 14.3681 10.411 14.691 9.99609 14.691C9.58964 14.691 9.25939 14.3681 9.25939 13.9623V12.1239C9.25939 11.7264 9.58964 11.4034 9.99609 11.4034C10.411 11.4034 10.7413 11.7264 10.7413 12.1239V13.9623Z" fill="#9E9E9E"/>
</svg>
